<svg xmlns="http://www.w3.org/2000/svg" xmlns:xlink="http://www.w3.org/1999/xlink" width="280" zoomAndPan="magnify" viewBox="0 0 210 83.04" height="100" preserveAspectRatio="xMidYMid meet" version="1.0"><defs><clipPath id="d7c2b1f507"><path d="M 138 47 L 144.734375 47 L 144.734375 58 L 138 58 Z M 138 47 " clip-rule="nonzero"/></clipPath><clipPath id="1a23a8a57e"><path d="M 65.402344 16.015625 L 144 16.015625 L 144 43 L 65.402344 43 Z M 65.402344 16.015625 " clip-rule="nonzero"/></clipPath></defs><path fill="#f1f1f1" d="M 82.523438 32.683594 L 82.523438 37.207031 L 71.824219 37.207031 L 71.824219 20.785156 L 76.558594 20.785156 L 76.558594 32.683594 Z M 82.523438 32.683594 " fill-opacity="1" fill-rule="nonzero"/><path fill="#f1f1f1" d="M 108.382812 37.679688 L 108.382812 28.679688 L 106.089844 36.085938 L 103.1875 36.085938 L 100.894531 28.679688 L 100.894531 37.675781 L 97.039062 37.675781 L 97.039062 21.253906 L 101.71875 21.253906 L 104.640625 29.832031 L 107.5625 21.253906 L 112.242188 21.253906 L 112.242188 37.679688 Z M 108.382812 37.679688 " fill-opacity="1" fill-rule="nonzero"/><path fill="#f1f1f1" d="M 136.015625 35.542969 C 135.179688 36.34375 134.195312 36.839844 133.058594 37.039062 L 133.058594 39.515625 L 130.40625 39.515625 L 130.40625 37.167969 C 129.058594 37.105469 127.792969 36.746094 126.613281 36.089844 L 126.304688 35.898438 L 127.277344 33.507812 L 127.8125 33.820312 C 128.894531 34.433594 130.058594 34.738281 131.300781 34.738281 C 132.863281 34.738281 133.914062 34.007812 133.914062 32.921875 C 133.914062 31.9375 133.148438 31.261719 131.273438 30.59375 C 130.0625 30.238281 128.957031 29.675781 127.949219 28.917969 C 127.53125 28.589844 127.207031 28.191406 126.976562 27.710938 C 126.746094 27.234375 126.632812 26.730469 126.640625 26.199219 C 126.636719 25.679688 126.742188 25.179688 126.953125 24.699219 C 127.164062 24.222656 127.460938 23.808594 127.847656 23.457031 C 128.636719 22.753906 129.550781 22.3125 130.59375 22.128906 L 130.59375 19.71875 L 133.21875 19.71875 L 133.21875 21.976562 C 134.328125 22.035156 135.378906 22.316406 136.371094 22.8125 L 136.738281 23 L 135.722656 25.359375 L 135.210938 25.105469 C 134.257812 24.605469 133.242188 24.363281 132.164062 24.378906 C 130.488281 24.378906 129.890625 25.175781 129.890625 25.917969 C 129.890625 26.808594 130.550781 27.308594 132.824219 28.136719 C 134.035156 28.503906 135.109375 29.109375 136.050781 29.953125 C 136.839844 30.722656 137.21875 31.660156 137.191406 32.761719 C 137.183594 33.851562 136.792969 34.777344 136.015625 35.542969 Z M 136.015625 35.542969 " fill-opacity="1" fill-rule="nonzero"/><path fill="#f1f1f1" d="M 72.609375 55 L 72.609375 57.773438 L 66.046875 57.773438 L 66.046875 47.695312 L 68.953125 47.695312 L 68.953125 55 Z M 72.609375 55 " fill-opacity="1" fill-rule="nonzero"/><path fill="#f1f1f1" d="M 76.042969 56.351562 L 75.589844 57.773438 L 72.609375 57.773438 L 76.3125 47.695312 L 79.292969 47.695312 L 82.863281 57.773438 L 79.769531 57.773438 L 79.332031 56.351562 Z M 77.71875 51.015625 L 76.792969 53.964844 L 78.621094 53.964844 Z M 77.71875 51.015625 " fill-opacity="1" fill-rule="nonzero"/><path fill="#f1f1f1" d="M 89.472656 57.773438 L 86.011719 52.628906 L 86.011719 57.773438 L 83.371094 57.773438 L 83.371094 47.695312 L 85.800781 47.695312 L 89.269531 52.871094 L 89.269531 47.695312 L 91.902344 47.695312 L 91.902344 57.773438 Z M 89.472656 57.773438 " fill-opacity="1" fill-rule="nonzero"/><path fill="#f1f1f1" d="M 95.835938 56.351562 L 95.382812 57.773438 L 92.402344 57.773438 L 96.113281 47.695312 L 99.089844 47.695312 L 102.664062 57.773438 L 99.570312 57.773438 L 99.132812 56.351562 Z M 97.511719 51.015625 L 96.578125 53.964844 L 98.40625 53.964844 Z M 97.511719 51.015625 " fill-opacity="1" fill-rule="nonzero"/><path fill="#e6e6e6" d="M 110.601562 57.773438 L 110.601562 52.253906 L 109.101562 56.800781 L 107.195312 56.800781 L 105.691406 52.257812 L 105.691406 57.777344 L 103.160156 57.777344 L 103.160156 47.695312 L 106.234375 47.695312 L 108.152344 52.957031 L 110.066406 47.695312 L 113.140625 47.695312 L 113.140625 57.773438 Z M 110.601562 57.773438 " fill-opacity="1" fill-rule="nonzero"/><path fill="#e6e6e6" d="M 123.59375 52.726562 C 123.59375 55.71875 121.5625 57.917969 118.769531 57.917969 C 115.976562 57.917969 113.949219 55.734375 113.949219 52.726562 C 113.925781 52.398438 113.941406 52.070312 113.988281 51.742188 C 114.035156 51.417969 114.113281 51.097656 114.222656 50.789062 C 114.335938 50.476562 114.480469 50.183594 114.652344 49.902344 C 114.824219 49.621094 115.023438 49.359375 115.25 49.117188 C 115.476562 48.878906 115.722656 48.664062 115.992188 48.472656 C 116.261719 48.285156 116.550781 48.125 116.851562 47.992188 C 117.15625 47.863281 117.46875 47.761719 117.792969 47.695312 C 118.113281 47.628906 118.441406 47.59375 118.769531 47.59375 C 119.101562 47.59375 119.425781 47.628906 119.75 47.695312 C 120.074219 47.761719 120.386719 47.863281 120.6875 47.992188 C 120.992188 48.125 121.277344 48.285156 121.546875 48.472656 C 121.820312 48.664062 122.066406 48.878906 122.292969 49.117188 C 122.519531 49.359375 122.71875 49.621094 122.890625 49.902344 C 123.0625 50.183594 123.203125 50.476562 123.316406 50.789062 C 123.429688 51.097656 123.507812 51.417969 123.554688 51.742188 C 123.601562 52.070312 123.613281 52.398438 123.59375 52.726562 Z M 116.929688 52.742188 C 116.898438 53.027344 116.921875 53.304688 117 53.578125 C 117.078125 53.851562 117.203125 54.101562 117.378906 54.328125 C 117.554688 54.550781 117.765625 54.734375 118.011719 54.875 C 118.261719 55.015625 118.527344 55.105469 118.808594 55.144531 C 119.808594 55.144531 120.613281 54.121094 120.613281 52.742188 C 120.613281 51.367188 119.808594 50.371094 118.808594 50.371094 C 118.527344 50.402344 118.261719 50.488281 118.011719 50.625 C 117.765625 50.765625 117.554688 50.945312 117.378906 51.167969 C 117.203125 51.390625 117.074219 51.636719 116.996094 51.910156 C 116.917969 52.183594 116.894531 52.460938 116.929688 52.742188 Z M 116.929688 52.742188 " fill-opacity="1" fill-rule="nonzero"/><path fill="#e6e6e6" d="M 126.925781 57.773438 L 123.59375 47.695312 L 126.699219 47.695312 L 128.515625 54.308594 L 130.320312 47.695312 L 133.289062 47.695312 L 129.929688 57.773438 Z M 126.925781 57.773438 " fill-opacity="1" fill-rule="nonzero"/><path fill="#e6e6e6" d="M 133.851562 47.695312 L 136.757812 47.695312 L 136.757812 57.773438 L 133.851562 57.773438 Z M 133.851562 47.695312 " fill-opacity="1" fill-rule="nonzero"/><g clip-path="url(#d7c2b1f507)"><path fill="#e6e6e6" d="M 144.574219 55 L 144.574219 57.773438 L 138.011719 57.773438 L 138.011719 47.695312 L 140.917969 47.695312 L 140.917969 55 Z M 144.574219 55 " fill-opacity="1" fill-rule="nonzero"/></g><g clip-path="url(#1a23a8a57e)"><path fill="#e6e6e6" d="M 120.042969 16.015625 L 120.042969 27.785156 L 116.238281 27.785156 L 116.238281 16.015625 L 92.730469 16.015625 L 92.730469 27.785156 L 88.925781 27.785156 L 88.925781 16.015625 L 65.417969 16.015625 L 65.417969 42.992188 L 88.925781 42.992188 L 88.925781 31.5625 L 92.730469 31.5625 L 92.730469 42.992188 L 116.238281 42.992188 L 116.238281 31.5625 L 120.042969 31.5625 L 120.042969 42.992188 L 143.550781 42.992188 L 143.550781 16.015625 Z M 86.886719 40.652344 L 67.457031 40.652344 L 67.457031 18.351562 L 86.886719 18.351562 Z M 114.292969 40.652344 L 94.859375 40.652344 L 94.859375 18.351562 L 114.292969 18.351562 Z M 141.515625 40.652344 L 122.082031 40.652344 L 122.082031 18.351562 L 141.515625 18.351562 Z M 141.515625 40.652344 " fill-opacity="1" fill-rule="nonzero"/></g></svg>