<svg xmlns="http://www.w3.org/2000/svg" xmlns:xlink="http://www.w3.org/1999/xlink" width="280" zoomAndPan="magnify" viewBox="0 0 210 83.04" height="100" preserveAspectRatio="xMidYMid meet" version="1.0"><defs><filter x="0%" y="0%" width="100%" height="100%" id="ae73c605a7"><feColorMatrix values="0 0 0 0 1 0 0 0 0 1 0 0 0 0 1 0 0 0 1 0" color-interpolation-filters="sRGB"/></filter><mask id="61441e8b2f"><g filter="url(#ae73c605a7)"><rect x="-21" width="252" fill="#000000" y="-8.304" height="99.648" fill-opacity="0.2"/></g></mask><clipPath id="e3a5cad55e"><path d="M 0.34375 6 L 16 6 L 16 24 L 0.34375 24 Z M 0.34375 6 " clip-rule="nonzero"/></clipPath><clipPath id="7d5fb97a9c"><path d="M 85 24 L 105.449219 24 L 105.449219 34 L 85 34 Z M 85 24 " clip-rule="nonzero"/></clipPath><clipPath id="4d06392fbe"><path d="M 0.34375 25 L 69 25 L 69 34 L 0.34375 34 Z M 0.34375 25 " clip-rule="nonzero"/></clipPath><clipPath id="b6df3bfbca"><rect x="0" width="106" y="0" height="35"/></clipPath></defs><g mask="url(#61441e8b2f)"><g transform="matrix(1, 0, 0, 1, 54, 19)"><g clip-path="url(#b6df3bfbca)"><g clip-path="url(#e3a5cad55e)"><path fill="#8b8b8b" d="M 8.066406 6.21875 C 9.175781 6.21875 10.207031 6.398438 11.167969 6.75 C 12.121094 7.105469 12.953125 7.636719 13.648438 8.34375 C 14.351562 9.050781 14.894531 9.933594 15.289062 10.996094 C 15.683594 12.058594 15.878906 13.300781 15.878906 14.734375 C 15.878906 15.988281 15.71875 17.148438 15.398438 18.207031 C 15.078125 19.269531 14.589844 20.1875 13.941406 20.957031 C 13.289062 21.730469 12.476562 22.335938 11.503906 22.78125 C 10.53125 23.222656 9.382812 23.445312 8.066406 23.445312 L 0.636719 23.445312 L 0.636719 6.222656 L 8.066406 6.222656 Z M 7.800781 20.257812 C 8.347656 20.257812 8.875 20.171875 9.390625 19.992188 C 9.90625 19.816406 10.363281 19.523438 10.765625 19.113281 C 11.167969 18.703125 11.488281 18.167969 11.730469 17.507812 C 11.972656 16.847656 12.089844 16.046875 12.089844 15.09375 C 12.089844 14.226562 12.007812 13.441406 11.835938 12.742188 C 11.667969 12.039062 11.390625 11.441406 11.007812 10.945312 C 10.617188 10.449219 10.109375 10.066406 9.472656 9.800781 C 8.839844 9.535156 8.054688 9.402344 7.121094 9.402344 L 4.417969 9.402344 L 4.417969 20.257812 Z M 7.800781 20.257812 " fill-opacity="1" fill-rule="nonzero"/></g><path fill="#8b8b8b" d="M 21.492188 6.21875 L 21.492188 20.261719 L 29.890625 20.261719 L 29.890625 23.445312 L 17.707031 23.445312 L 17.707031 6.21875 Z M 21.492188 6.21875 " fill-opacity="1" fill-rule="nonzero"/><path fill="#8b8b8b" d="M 38.636719 6.21875 C 39.75 6.21875 40.78125 6.398438 41.738281 6.75 C 42.695312 7.105469 43.523438 7.636719 44.222656 8.34375 C 44.921875 9.050781 45.464844 9.933594 45.863281 10.996094 C 46.257812 12.058594 46.453125 13.300781 46.453125 14.734375 C 46.453125 15.988281 46.292969 17.148438 45.96875 18.207031 C 45.648438 19.269531 45.164062 20.1875 44.511719 20.957031 C 43.859375 21.730469 43.050781 22.335938 42.074219 22.78125 C 41.101562 23.222656 39.957031 23.445312 38.636719 23.445312 L 31.207031 23.445312 L 31.207031 6.222656 L 38.636719 6.222656 Z M 38.375 20.257812 C 38.921875 20.257812 39.453125 20.171875 39.964844 19.992188 C 40.480469 19.816406 40.9375 19.523438 41.339844 19.113281 C 41.742188 18.703125 42.066406 18.167969 42.304688 17.507812 C 42.546875 16.847656 42.667969 16.046875 42.667969 15.09375 C 42.667969 14.226562 42.582031 13.441406 42.414062 12.742188 C 42.246094 12.039062 41.964844 11.441406 41.582031 10.945312 C 41.195312 10.449219 40.683594 10.066406 40.050781 9.800781 C 39.414062 9.535156 38.632812 9.402344 37.695312 9.402344 L 34.992188 9.402344 L 34.992188 20.257812 Z M 38.375 20.257812 " fill-opacity="1" fill-rule="nonzero"/><path fill="#8b8b8b" d="M 51.972656 19.199219 C 52.179688 19.601562 52.460938 19.925781 52.804688 20.175781 C 53.148438 20.429688 53.554688 20.613281 54.023438 20.730469 C 54.492188 20.851562 54.972656 20.910156 55.472656 20.910156 C 55.808594 20.910156 56.167969 20.886719 56.558594 20.828125 C 56.945312 20.773438 57.304688 20.664062 57.640625 20.503906 C 57.980469 20.34375 58.257812 20.125 58.484375 19.839844 C 58.710938 19.558594 58.824219 19.199219 58.824219 18.765625 C 58.824219 18.296875 58.671875 17.921875 58.375 17.632812 C 58.078125 17.339844 57.6875 17.101562 57.207031 16.90625 C 56.722656 16.714844 56.175781 16.546875 55.566406 16.398438 C 54.953125 16.257812 54.335938 16.09375 53.707031 15.914062 C 53.0625 15.753906 52.433594 15.558594 51.824219 15.324219 C 51.214844 15.089844 50.667969 14.789062 50.183594 14.421875 C 49.703125 14.050781 49.3125 13.589844 49.015625 13.03125 C 48.71875 12.476562 48.566406 11.808594 48.566406 11.015625 C 48.566406 10.132812 48.757812 9.363281 49.132812 8.714844 C 49.511719 8.0625 50.003906 7.519531 50.621094 7.085938 C 51.230469 6.652344 51.921875 6.332031 52.691406 6.121094 C 53.464844 5.910156 54.238281 5.804688 55.007812 5.804688 C 55.910156 5.804688 56.773438 5.90625 57.601562 6.105469 C 58.429688 6.308594 59.167969 6.632812 59.808594 7.085938 C 60.453125 7.535156 60.960938 8.109375 61.339844 8.808594 C 61.714844 9.511719 61.90625 10.359375 61.90625 11.351562 L 58.238281 11.351562 C 58.207031 10.839844 58.097656 10.410156 57.914062 10.074219 C 57.726562 9.738281 57.484375 9.472656 57.175781 9.28125 C 56.871094 9.085938 56.523438 8.949219 56.128906 8.871094 C 55.734375 8.789062 55.304688 8.75 54.839844 8.75 C 54.53125 8.75 54.226562 8.785156 53.921875 8.847656 C 53.613281 8.910156 53.335938 9.023438 53.089844 9.183594 C 52.839844 9.34375 52.636719 9.542969 52.476562 9.789062 C 52.316406 10.027344 52.234375 10.335938 52.234375 10.707031 C 52.234375 11.042969 52.296875 11.316406 52.429688 11.527344 C 52.554688 11.738281 52.808594 11.925781 53.1875 12.105469 C 53.566406 12.28125 54.089844 12.457031 54.757812 12.636719 C 55.425781 12.8125 56.296875 13.035156 57.375 13.308594 C 57.695312 13.371094 58.140625 13.488281 58.714844 13.660156 C 59.285156 13.828125 59.851562 14.097656 60.414062 14.46875 C 60.980469 14.835938 61.464844 15.332031 61.875 15.949219 C 62.285156 16.566406 62.488281 17.359375 62.488281 18.324219 C 62.488281 19.113281 62.335938 19.84375 62.03125 20.519531 C 61.722656 21.195312 61.269531 21.78125 60.667969 22.269531 C 60.066406 22.761719 59.316406 23.140625 58.425781 23.414062 C 57.535156 23.6875 56.5 23.824219 55.324219 23.824219 C 54.378906 23.824219 53.457031 23.707031 52.566406 23.476562 C 51.675781 23.242188 50.886719 22.878906 50.203125 22.378906 C 49.519531 21.878906 48.972656 21.242188 48.574219 20.472656 C 48.171875 19.699219 47.980469 18.78125 47.996094 17.722656 L 51.660156 17.722656 C 51.660156 18.296875 51.765625 18.789062 51.972656 19.191406 " fill-opacity="1" fill-rule="nonzero"/><path fill="#8b8b8b" d="M 80.199219 33.863281 C 79.554688 32.535156 78.773438 31.777344 78.152344 31.433594 L 78.117188 31.523438 C 76.871094 34.035156 73.867188 33.847656 73.867188 33.847656 C 63.953125 33.875 61.527344 24.855469 61.527344 24.855469 C 63.339844 26.527344 69.675781 25.035156 69.675781 25.035156 C 76.890625 22.992188 78.1875 29.300781 78.1875 29.300781 C 78.1875 29.300781 75.617188 27.328125 71.535156 28.199219 C 71.417969 28.207031 71.3125 28.273438 71.257812 28.386719 C 71.175781 28.558594 71.246094 28.757812 71.414062 28.84375 C 71.484375 28.875 71.558594 28.882812 71.628906 28.871094 C 73.800781 28.625 75.492188 28.863281 76.808594 29.34375 C 79.980469 30.582031 81.101562 33.125 81.371094 33.871094 " fill-opacity="1" fill-rule="nonzero"/><g clip-path="url(#7d5fb97a9c)"><path fill="#8b8b8b" d="M 86.269531 33.6875 C 86.925781 32.367188 87.71875 31.617188 88.339844 31.273438 L 88.378906 31.367188 C 89.59375 33.890625 92.601562 33.738281 92.601562 33.738281 C 102.519531 33.871094 105.039062 24.878906 105.039062 24.878906 C 103.210938 26.53125 96.886719 24.972656 96.886719 24.972656 C 89.699219 22.851562 88.332031 29.148438 88.332031 29.148438 C 88.332031 29.148438 90.921875 27.199219 94.996094 28.113281 C 95.113281 28.125 95.21875 28.195312 95.273438 28.308594 C 95.351562 28.476562 95.277344 28.679688 95.113281 28.761719 C 95.042969 28.796875 94.96875 28.800781 94.898438 28.789062 C 92.730469 28.519531 91.035156 28.738281 89.714844 29.207031 C 86.53125 30.410156 85.382812 32.945312 85.105469 33.683594 " fill-opacity="1" fill-rule="nonzero"/></g><path fill="#8b8b8b" d="M 83.511719 33.671875 C 82.140625 31.828125 82.320312 29.9375 82.320312 29.9375 C 86.519531 30.027344 88.261719 25.875 88.261719 25.875 C 94.71875 12.894531 84.472656 3.875 84.472656 3.875 C 85.488281 7.332031 79.433594 14.675781 79.433594 14.675781 C 72.078125 22.804688 79.511719 28.589844 79.511719 28.589844 C 79.511719 28.589844 78.585938 23.9375 82.371094 19.15625 C 82.460938 19.007812 82.621094 18.917969 82.800781 18.917969 C 83.074219 18.917969 83.292969 19.140625 83.292969 19.414062 C 83.292969 19.527344 83.257812 19.625 83.195312 19.710938 C 78.832031 26.492188 80.480469 31.253906 82.042969 33.660156 L 83.515625 33.667969 Z M 83.511719 33.671875 " fill-opacity="1" fill-rule="nonzero"/><path fill="#8b8b8b" d="M 97.777344 24.113281 C 97.507812 24.050781 97.246094 24 96.984375 23.9375 C 96.570312 23.835938 96.160156 23.730469 95.746094 23.621094 C 95.453125 23.546875 95.160156 23.496094 94.859375 23.46875 C 94.746094 23.457031 94.636719 23.441406 94.511719 23.429688 C 94.53125 23.386719 94.542969 23.355469 94.5625 23.324219 C 95.082031 22.308594 95.460938 21.238281 95.707031 20.121094 C 95.800781 19.695312 95.867188 19.261719 95.917969 18.828125 C 95.96875 18.367188 95.996094 17.90625 96 17.449219 C 96 17.09375 95.976562 16.738281 95.960938 16.386719 C 95.945312 16.089844 95.90625 15.796875 95.871094 15.5 C 95.789062 14.921875 95.667969 14.347656 95.507812 13.78125 C 94.910156 11.671875 93.855469 9.832031 92.34375 8.253906 C 90.820312 6.667969 89.011719 5.53125 86.925781 4.84375 C 86.832031 4.816406 86.761719 4.769531 86.703125 4.691406 C 86.152344 3.980469 85.535156 3.339844 84.8125 2.800781 C 84.441406 2.523438 84.042969 2.285156 83.609375 2.117188 C 83.507812 2.082031 83.402344 2.046875 83.296875 2.015625 C 83.277344 2.007812 83.257812 2.015625 83.222656 2.011719 C 83.269531 2.257812 83.359375 2.484375 83.398438 2.726562 C 83.433594 2.972656 83.46875 3.21875 83.492188 3.464844 C 83.515625 3.710938 83.515625 3.953125 83.535156 4.203125 C 83.492188 4.207031 83.464844 4.21875 83.433594 4.214844 C 82.976562 4.175781 82.519531 4.199219 82.0625 4.222656 C 81.789062 4.234375 81.515625 4.269531 81.242188 4.300781 C 80.574219 4.375 79.917969 4.511719 79.277344 4.695312 C 77.761719 5.121094 76.367188 5.804688 75.101562 6.734375 C 73.386719 7.988281 72.054688 9.5625 71.09375 11.460938 C 70.570312 12.496094 70.195312 13.59375 69.964844 14.730469 C 69.867188 15.214844 69.792969 15.703125 69.75 16.195312 C 69.695312 16.820312 69.6875 17.441406 69.722656 18.066406 C 69.746094 18.503906 69.789062 18.9375 69.855469 19.367188 C 69.960938 20.035156 70.113281 20.691406 70.320312 21.335938 C 70.542969 22.03125 70.820312 22.699219 71.15625 23.347656 C 71.175781 23.386719 71.191406 23.421875 71.207031 23.457031 C 71.210938 23.46875 71.207031 23.476562 71.207031 23.492188 C 71.105469 23.5 71 23.519531 70.902344 23.523438 C 70.601562 23.542969 70.304688 23.609375 70.011719 23.660156 C 69.636719 23.730469 69.265625 23.800781 68.890625 23.867188 C 68.640625 23.910156 68.390625 23.941406 68.144531 23.980469 C 68.085938 23.949219 68.078125 23.894531 68.058594 23.847656 C 67.730469 23.101562 67.464844 22.332031 67.253906 21.542969 C 67.101562 20.96875 66.984375 20.390625 66.894531 19.804688 C 66.832031 19.410156 66.789062 19.007812 66.757812 18.613281 C 66.714844 18.003906 66.699219 17.398438 66.71875 16.789062 C 66.734375 16.386719 66.761719 15.980469 66.804688 15.578125 C 66.890625 14.777344 67.035156 13.988281 67.242188 13.207031 C 67.699219 11.464844 68.417969 9.847656 69.417969 8.351562 C 71 6 73.042969 4.167969 75.5625 2.863281 C 76.789062 2.226562 78.082031 1.769531 79.429688 1.464844 C 79.84375 1.371094 80.261719 1.289062 80.683594 1.242188 C 80.996094 1.203125 81.300781 1.164062 81.613281 1.132812 C 81.828125 1.113281 82.046875 1.105469 82.265625 1.097656 C 82.621094 1.082031 82.96875 1.0625 83.328125 1.082031 C 83.636719 1.09375 83.953125 1.113281 84.261719 1.132812 C 84.433594 1.144531 84.601562 1.160156 84.773438 1.175781 C 84.960938 1.195312 85.15625 1.21875 85.34375 1.246094 C 85.671875 1.304688 86.007812 1.359375 86.335938 1.425781 C 87.179688 1.59375 87.996094 1.835938 88.796875 2.144531 C 90.667969 2.859375 92.34375 3.890625 93.832031 5.230469 C 95.332031 6.578125 96.546875 8.144531 97.46875 9.941406 C 98.144531 11.253906 98.621094 12.632812 98.917969 14.074219 C 99.023438 14.589844 99.105469 15.113281 99.15625 15.640625 C 99.238281 16.476562 99.277344 17.3125 99.21875 18.148438 C 99.195312 18.503906 99.175781 18.855469 99.140625 19.207031 C 99.074219 19.835938 98.964844 20.460938 98.816406 21.078125 C 98.582031 22.070312 98.261719 23.035156 97.84375 23.964844 C 97.824219 24.011719 97.800781 24.054688 97.777344 24.109375 " fill-opacity="1" fill-rule="nonzero"/><path fill="#8b8b8b" d="M 83.511719 5.273438 C 83.496094 5.394531 83.480469 5.507812 83.460938 5.621094 C 83.351562 6.214844 83.171875 6.789062 82.945312 7.347656 C 82.738281 7.851562 82.5 8.34375 82.234375 8.820312 C 82.21875 8.851562 82.199219 8.878906 82.179688 8.914062 C 82.070312 8.925781 81.957031 8.941406 81.851562 8.953125 C 80.203125 9.152344 78.742188 9.78125 77.464844 10.839844 C 76.132812 11.945312 75.222656 13.332031 74.734375 14.996094 C 74.597656 15.457031 74.507812 15.933594 74.453125 16.414062 C 74.394531 16.945312 74.382812 17.480469 74.425781 18.015625 C 74.507812 19.046875 74.769531 20.03125 75.21875 20.960938 C 75.257812 21.046875 75.28125 21.132812 75.277344 21.230469 C 75.269531 21.507812 75.265625 21.789062 75.277344 22.070312 C 75.292969 22.527344 75.355469 22.980469 75.441406 23.433594 C 75.519531 23.84375 75.632812 24.25 75.769531 24.648438 C 75.777344 24.683594 75.785156 24.714844 75.796875 24.777344 C 75.449219 24.546875 75.105469 24.347656 74.746094 24.1875 C 74.382812 24.019531 74.007812 23.882812 73.621094 23.773438 C 73.242188 23.664062 72.855469 23.59375 72.472656 23.542969 C 70.242188 19.878906 70.046875 14.855469 72.691406 10.789062 C 75.539062 6.402344 80.140625 5.035156 83.511719 5.273438 " fill-opacity="1" fill-rule="nonzero"/><path fill="#8b8b8b" d="M 88.117188 6.476562 C 88.234375 6.492188 88.605469 6.683594 89.085938 6.976562 C 90.5 7.835938 91.695312 8.933594 92.664062 10.273438 C 93.613281 11.585938 94.277344 13.039062 94.640625 14.625 C 94.996094 16.160156 95.046875 17.710938 94.796875 19.265625 C 94.496094 21.140625 93.796875 22.613281 93.28125 23.457031 C 93.160156 23.476562 93.027344 23.496094 92.894531 23.515625 C 91.78125 23.683594 90.761719 24.085938 89.835938 24.722656 C 89.804688 24.742188 89.777344 24.761719 89.742188 24.777344 C 89.742188 24.777344 89.734375 24.777344 89.726562 24.769531 C 89.710938 24.714844 89.746094 24.671875 89.761719 24.625 C 90.015625 23.953125 90.242188 23.265625 90.4375 22.570312 C 90.652344 21.796875 90.839844 21.011719 90.96875 20.21875 C 91.035156 19.78125 91.089844 19.34375 91.15625 18.90625 C 91.195312 18.640625 91.242188 18.371094 91.265625 18.105469 C 91.292969 17.839844 91.300781 17.578125 91.296875 17.3125 C 91.296875 17.085938 91.28125 16.863281 91.269531 16.644531 C 91.269531 16.597656 91.265625 16.550781 91.265625 16.503906 C 91.261719 16.019531 91.230469 15.539062 91.1875 15.054688 C 91.074219 13.75 90.8125 12.476562 90.421875 11.230469 C 89.910156 9.585938 89.167969 8.054688 88.199219 6.628906 C 88.167969 6.582031 88.140625 6.535156 88.109375 6.488281 C 88.109375 6.488281 88.109375 6.480469 88.109375 6.472656 " fill-opacity="1" fill-rule="nonzero"/><path fill="#8b8b8b" d="M 75.636719 18.9375 C 75.492188 18.570312 75.40625 17.382812 75.464844 16.765625 C 75.578125 15.496094 75.972656 14.320312 76.683594 13.253906 C 77.367188 12.226562 78.25 11.421875 79.335938 10.824219 C 79.996094 10.464844 81.085938 10.085938 81.472656 10.082031 C 81.484375 10.125 81.453125 10.15625 81.429688 10.1875 C 81.132812 10.648438 80.835938 11.117188 80.523438 11.570312 C 79.691406 12.78125 78.78125 13.929688 77.800781 15.019531 C 76.816406 16.109375 76.128906 17.363281 75.699219 18.765625 C 75.679688 18.816406 75.664062 18.863281 75.640625 18.9375 " fill-opacity="1" fill-rule="nonzero"/><g clip-path="url(#4d06392fbe)"><path fill="#8b8b8b" d="M 68.027344 33.726562 L 0.613281 33.609375 L 0.613281 25.644531 L 60.308594 25.644531 C 60.972656 27.375 63.09375 31.761719 68.027344 33.726562 M 5.921875 29.738281 C 5.921875 28.339844 5.140625 27.753906 3.859375 27.753906 C 3.394531 27.753906 2.925781 27.769531 2.605469 27.777344 L 2.605469 31.824219 C 2.921875 31.828125 3.265625 31.84375 3.679688 31.84375 C 5 31.84375 5.921875 31.132812 5.921875 29.738281 M 5.230469 29.785156 C 5.230469 30.824219 4.617188 31.285156 3.746094 31.285156 C 3.589844 31.285156 3.394531 31.273438 3.261719 31.253906 L 3.261719 28.3125 C 3.402344 28.296875 3.613281 28.292969 3.808594 28.292969 C 4.800781 28.292969 5.226562 28.824219 5.226562 29.78125 M 7.898438 27.765625 L 7.246094 27.765625 L 7.246094 31.816406 L 7.898438 31.816406 Z M 11.707031 30.589844 C 11.707031 29.324219 9.9375 29.625 9.9375 28.816406 C 9.9375 28.476562 10.195312 28.246094 10.699219 28.246094 C 10.941406 28.246094 11.195312 28.285156 11.433594 28.359375 L 11.464844 27.777344 C 11.21875 27.738281 10.976562 27.707031 10.734375 27.707031 C 9.792969 27.707031 9.246094 28.191406 9.246094 28.886719 C 9.246094 30.195312 11.015625 29.835938 11.015625 30.6875 C 11.015625 31.125 10.65625 31.3125 10.210938 31.3125 C 9.917969 31.3125 9.601562 31.246094 9.371094 31.160156 L 9.335938 31.777344 C 9.566406 31.839844 9.855469 31.875 10.152344 31.875 C 11.117188 31.875 11.703125 31.335938 11.703125 30.589844 M 15.371094 28.316406 L 15.371094 27.765625 L 12.492188 27.765625 L 12.492188 28.316406 L 13.597656 28.316406 L 13.597656 31.816406 L 14.253906 31.816406 L 14.253906 28.316406 Z M 19.25 31.816406 L 18.183594 30.40625 C 18.082031 30.277344 17.953125 30.121094 17.839844 29.976562 C 18.5 29.902344 18.984375 29.488281 18.984375 28.84375 C 18.984375 28.039062 18.414062 27.746094 17.570312 27.746094 C 17.113281 27.746094 16.78125 27.753906 16.488281 27.769531 L 16.488281 31.820312 L 17.140625 31.820312 L 17.140625 30.066406 L 17.171875 30.066406 L 18.433594 31.820312 L 19.253906 31.820312 Z M 18.300781 28.910156 C 18.300781 29.3125 17.984375 29.585938 17.457031 29.585938 C 17.3125 29.585938 17.199219 29.578125 17.140625 29.574219 L 17.140625 28.289062 C 17.238281 28.28125 17.359375 28.277344 17.484375 28.277344 C 18.027344 28.277344 18.304688 28.472656 18.304688 28.910156 M 21.152344 27.765625 L 20.5 27.765625 L 20.5 31.816406 L 21.152344 31.816406 Z M 25.5 30.589844 C 25.5 30.171875 25.257812 29.769531 24.726562 29.667969 L 24.726562 29.652344 C 25.140625 29.507812 25.417969 29.140625 25.417969 28.726562 C 25.417969 28.105469 24.964844 27.742188 24.082031 27.742188 C 23.589844 27.742188 23.128906 27.753906 22.8125 27.761719 L 22.8125 31.808594 C 23.261719 31.816406 23.667969 31.824219 23.914062 31.824219 C 25.15625 31.824219 25.503906 31.113281 25.503906 30.585938 M 24.738281 28.828125 C 24.738281 29.234375 24.417969 29.484375 23.8125 29.484375 C 23.675781 29.484375 23.570312 29.484375 23.464844 29.476562 L 23.464844 28.277344 C 23.621094 28.269531 23.796875 28.265625 23.976562 28.265625 C 24.550781 28.265625 24.738281 28.5 24.738281 28.828125 M 24.8125 30.597656 C 24.8125 31.003906 24.535156 31.292969 23.9375 31.292969 C 23.730469 31.292969 23.570312 31.28125 23.464844 31.261719 L 23.464844 29.972656 C 23.554688 29.964844 23.765625 29.964844 23.832031 29.964844 C 24.398438 29.964844 24.8125 30.132812 24.8125 30.597656 M 30.039062 30.246094 L 30.039062 27.757812 L 29.398438 27.757812 L 29.398438 30.292969 C 29.398438 31.046875 29.097656 31.324219 28.441406 31.324219 C 27.691406 31.324219 27.511719 30.917969 27.511719 30.378906 L 27.511719 27.753906 L 26.855469 27.753906 L 26.855469 30.425781 C 26.855469 31.167969 27.125 31.863281 28.398438 31.863281 C 29.460938 31.863281 30.039062 31.320312 30.039062 30.242188 M 32.324219 27.753906 L 31.667969 27.753906 L 31.667969 31.800781 L 32.324219 31.800781 Z M 37.296875 29.71875 C 37.296875 28.316406 36.507812 27.734375 35.234375 27.734375 C 34.765625 27.734375 34.300781 27.75 33.980469 27.757812 L 33.980469 31.800781 C 34.300781 31.808594 34.644531 31.824219 35.054688 31.824219 C 36.375 31.824219 37.300781 31.113281 37.300781 29.71875 M 36.605469 29.765625 C 36.605469 30.804688 35.996094 31.265625 35.125 31.265625 C 34.964844 31.265625 34.769531 31.25 34.636719 31.234375 L 34.636719 28.292969 C 34.78125 28.277344 34.988281 28.269531 35.1875 28.269531 C 36.179688 28.269531 36.601562 28.804688 36.601562 29.761719 M 42.144531 29.722656 C 42.144531 28.367188 41.414062 27.691406 40.324219 27.691406 C 39.230469 27.691406 38.378906 28.476562 38.378906 29.820312 C 38.378906 31.0625 38.976562 31.859375 40.207031 31.859375 C 41.277344 31.859375 42.148438 31.066406 42.148438 29.722656 M 41.453125 29.789062 C 41.453125 30.796875 40.855469 31.277344 40.253906 31.277344 C 39.457031 31.277344 39.078125 30.660156 39.078125 29.742188 C 39.078125 28.773438 39.640625 28.269531 40.265625 28.269531 C 41.019531 28.269531 41.453125 28.8125 41.453125 29.789062 M 46.214844 31.800781 L 45.144531 30.390625 C 45.042969 30.261719 44.917969 30.101562 44.804688 29.960938 C 45.464844 29.886719 45.949219 29.472656 45.949219 28.824219 C 45.949219 28.019531 45.375 27.730469 44.535156 27.730469 C 44.078125 27.730469 43.742188 27.738281 43.449219 27.753906 L 43.449219 31.800781 L 44.105469 31.800781 L 44.105469 30.050781 L 44.132812 30.050781 L 45.394531 31.800781 L 46.21875 31.800781 Z M 45.265625 28.894531 C 45.265625 29.296875 44.949219 29.570312 44.421875 29.570312 C 44.277344 29.570312 44.164062 29.5625 44.105469 29.554688 L 44.105469 28.269531 C 44.203125 28.265625 44.320312 28.261719 44.449219 28.261719 C 44.992188 28.261719 45.269531 28.453125 45.269531 28.894531 M 49.59375 31.800781 L 49.59375 31.242188 L 48.113281 31.242188 L 48.113281 29.980469 L 49.523438 29.980469 L 49.523438 29.445312 L 48.113281 29.445312 L 48.113281 28.292969 L 49.59375 28.292969 L 49.59375 27.746094 L 47.457031 27.746094 L 47.457031 31.796875 L 49.59375 31.796875 Z M 53.316406 30.574219 C 53.316406 29.308594 51.546875 29.609375 51.546875 28.796875 C 51.546875 28.460938 51.804688 28.226562 52.308594 28.226562 C 52.546875 28.226562 52.804688 28.269531 53.039062 28.339844 L 53.074219 27.761719 C 52.828125 27.71875 52.585938 27.691406 52.34375 27.691406 C 51.402344 27.691406 50.855469 28.175781 50.855469 28.871094 C 50.855469 30.179688 52.625 29.820312 52.625 30.671875 C 52.625 31.109375 52.265625 31.296875 51.820312 31.296875 C 51.527344 31.296875 51.210938 31.226562 50.984375 31.144531 L 50.945312 31.761719 C 51.179688 31.824219 51.46875 31.859375 51.761719 31.859375 C 52.730469 31.859375 53.316406 31.316406 53.316406 30.574219 " fill-opacity="1" fill-rule="nonzero"/></g></g></g></g></svg>